<svg xmlns="http://www.w3.org/2000/svg" width="67" height="51" viewBox="0 0 67 51">
  <defs>
    <style>
      .cls-1 {
        fill: #caa354;
        fill-rule: evenodd;
      }
    </style>
  </defs>
  <path id="Forme_23" data-name="Forme 23" class="cls-1" d="M920.083,936.4c-0.645.6,0.214,1.348,0.863,0.877a5.19,5.19,0,0,0,2.036-4q3.984,0.215,7.992.231a10.926,10.926,0,0,1-.9,2.456c-0.239.527,0.532,0.843,0.879,0.506a4.558,4.558,0,0,0,1.341-2.949q3.237,0,6.467-.181a9.313,9.313,0,0,1-1.022,3.6c-0.222.514,0.524,0.843,0.871,0.5a5.27,5.27,0,0,0,1.454-4.167q3.234-.193,6.455-0.547a8.389,8.389,0,0,1-.754,2.67c-0.293.637,0.7,0.906,1.035,0.422a5.869,5.869,0,0,0,1.068-3.248q3.313-.421,6.6-0.99a8.544,8.544,0,0,1-.716,2.14c-0.318.657,0.771,1.019,1.106,0.451a6.485,6.485,0,0,0,.884-2.827q2.408-.463,4.787-1.028a10.706,10.706,0,0,1-.339,3.138,0.516,0.516,0,0,0,1,.262,8.335,8.335,0,0,0,.452-3.665q2.376-.594,4.721-1.3a0.421,0.421,0,1,0-.159-0.8q-2.367.531-4.729,1.032a7.861,7.861,0,0,0-3.4-4.954,0.181,0.181,0,0,0-.243.079,0.183,0.183,0,0,0,.017.191,10.157,10.157,0,0,1,2.563,4.89q-2.337.493-4.67,0.935a6.384,6.384,0,0,0-3.322-5.084c-0.2-.105-0.5.173-0.3,0.35a6.586,6.586,0,0,1,2.472,4.949q-3.389.62-6.79,1.112a6.572,6.572,0,0,0-4.264-5.105c-0.277-.1-0.528.337-0.248,0.493a5.848,5.848,0,0,1,3.247,4.781q-3.3.45-6.619,0.712a7.052,7.052,0,0,0-3.992-4.79c-0.418-.181-0.929.421-0.452,0.683a5.863,5.863,0,0,1,3.192,4.035v0.164c-2.124.148-4.256,0.262-6.4,0.325a5.56,5.56,0,0,0-4.964-5.152,0.186,0.186,0,0,0-.076.358,5.6,5.6,0,0,1,3.557,3.265,4.259,4.259,0,0,1,.251,1.554q-4.034.093-8.08-.034a4.818,4.818,0,0,0-6.8-4.25c-0.159.084-.138,0.375,0.076,0.358,1.956-.152,3.983.257,5.026,2.106a3.786,3.786,0,0,1,.5,1.723c-3.192-.135-6.372-0.371-9.526-0.737a0.211,0.211,0,0,0-.029.421q4.737,0.548,9.542.843A5.1,5.1,0,0,1,920.083,936.4Zm49,35.7a68.182,68.182,0,0,0-1.257-9.688,0.26,0.26,0,0,0-.506.059,68.426,68.426,0,0,0,.976,9.57c-8.7.843-17.25,1.892-26.017,1.732a130.018,130.018,0,0,1-25.916-3.126c0.18-5.565-.419-11.222-0.75-16.77-0.331-5.27-.608-10.531-0.922-15.814a92.942,92.942,0,0,0,4.608,10.064,56.688,56.688,0,0,0,8.993,12.928c0.419,0.455,1.228-.24.78-0.712a60.166,60.166,0,0,1-9.161-12.941c-2.472-4.536-4.273-9.334-6.468-13.993a0.149,0.149,0,0,0-.272.1c0.276,1.006.6,2,.946,3-0.268,5.7.08,11.433,0.344,17.124,0.264,5.809.3,11.635,0.6,17.439a0.648,0.648,0,0,0,1.114.422,116.179,116.179,0,0,0,25.61,3.441,125.391,125.391,0,0,0,27.022-1.853,0.59,0.59,0,0,0,.428-0.715A0.6,0.6,0,0,0,969.084,972.1Zm-18.271-14.653a0.5,0.5,0,0,0,.686-0.187,23.194,23.194,0,0,0,3.561-9.352c0.243-2.191.2-5.207-1.919-6.508-4.159-2.562-7.447,4.018-7.648,7.7a13.942,13.942,0,0,0-6.987-4.945,3.083,3.083,0,0,0-1.347-.089,3.12,3.12,0,0,0-2.591,3.564c0.331,2.313,3.841,4.221,5.605,5.329a28.312,28.312,0,0,0,10.4,3.955A0.507,0.507,0,0,0,950.813,957.444Zm-13.044-7.521a7.5,7.5,0,0,1-2.011-1.913,2.307,2.307,0,0,1,.025-1.946c1.014-1.849,2.438-1.137,3.6-.644a14.589,14.589,0,0,1,5.986,4.671l0.02,0.02a0.346,0.346,0,0,0,.491-0.02,0.251,0.251,0,0,0,.151-0.2,10.586,10.586,0,0,1,1.588-5.219,6.646,6.646,0,0,1,2.592-2.49c2.417-.981,3.427.822,3.77,2.587,0.742,3.9-1.177,7.772-2.932,11.167v-0.021A28.863,28.863,0,0,1,937.769,949.923Zm41.176,6.188c-2.593-4.335-5.655-8.311-7.959-12.8a139.216,139.216,0,0,1-5.806-13.88c-0.088-.223-0.465-0.063-0.419.16a64.53,64.53,0,0,0,5.308,14.2c1.993,4.044,4.268,8.518,7.2,12.048-7.381,2.528-14.577,5.013-22.322,6.226a74.4,74.4,0,0,1-24.274-.278c-0.26-.034-0.432.341-0.143,0.421,7.6,2.132,15.763,2.065,23.52,1.054a82.888,82.888,0,0,0,23.571-6.425,0.486,0.486,0,0,0,.264-0.282l0.159,0.181A0.566,0.566,0,0,0,978.945,956.111Zm-22.3-2.548a0.422,0.422,0,0,0,.2.682,6.138,6.138,0,0,0,1.638.22,6.3,6.3,0,0,0,1.856-.278,0.416,0.416,0,0,0,.257-0.04l0.478-.242a0.421,0.421,0,0,0-.362-0.76,5.408,5.408,0,0,1-2.987.425,19.1,19.1,0,0,0,2.4-3.885,2.394,2.394,0,0,0,.281-1.676,1.3,1.3,0,0,0-.858-0.857,0.962,0.962,0,0,0-.922.176,0.423,0.423,0,0,0-.046.594,0.417,0.417,0,0,0,.59.047,0.143,0.143,0,0,1,.138-0.01,0.463,0.463,0,0,1,.293.284,1.711,1.711,0,0,1-.235,1.086A18.253,18.253,0,0,1,956.644,953.563Zm5.605-1.436a0.261,0.261,0,0,0,.04,0,0.42,0.42,0,0,0,.379-0.447,3.46,3.46,0,0,1,.484-2l0.024-.037,0.65,2.042a0.419,0.419,0,1,0,.8-0.258l-0.663-2.081a0.909,0.909,0,0,0-.411-0.568,0.857,0.857,0,0,0-1.115.466c-0.016.027-.032,0.053-0.047,0.081l-0.43-3.607a0.419,0.419,0,1,0-.832.1l0.708,5.936A0.42,0.42,0,0,0,962.249,952.127Z" transform="translate(-912 -924)"/>
</svg>
