<svg xmlns="http://www.w3.org/2000/svg" width="60" height="67.031" viewBox="0 0 60 67.031">
  <defs>
    <style>
      .cls-1 {
        fill: #caa354;
        fill-rule: evenodd;
      }
    </style>
  </defs>
  <path id="Forme_4" data-name="Forme 4" class="cls-1" d="M970.021,652.629c0.623-1.452,1.153-3.261-.1-3.67-1.115-.363-2.3.811-3.189,2.04,0.4-2.306.623-5.31-1.586-4.156-1.234.646-2.282,2.631-2.871,3.8a14.221,14.221,0,0,0-1.5,5.914,38.337,38.337,0,0,1-6.848-2.708c-3.778-1.943-9.211-4.9-10.1-9.419a0.295,0.295,0,0,0-.476-0.161,24.8,24.8,0,0,1,1.731-6.513,5.658,5.658,0,0,1,.933-1.838l1.166,0.321-0.068.846c0.229,1.191-.233,2.956-0.331,4.173-0.029.388,0.488,0.447,0.679,0.177,0.6-.845,2.719-4.748,3.715-2.817,0.2,0.385-.348,1.9-0.425,2.285l-0.424,2.285c-0.076.422,0.564,0.5,0.751,0.194a16.315,16.315,0,0,1,2.727-3.434c0.25-.24.513-0.473,0.785-0.688l1.272,1.829c0,0.5-1.57,1.9-1.9,2.272-1.934,2.15-4.058,4.123-6.161,6.1a0.4,0.4,0,1,0,.568.57c0.975-.9,1.947-1.808,2.9-2.729a4.929,4.929,0,0,0,6.018,5.859c3.643-.769,6.709-5.694,3.511-8.681a5.7,5.7,0,0,0-6.06-.742c1.06-1.141,2.829-2.776,2.4-4.423-0.814-3.122-3.778-.186-5.512,1.989a8.481,8.481,0,0,0,.318-3.56,2.927,2.927,0,0,0,3.1-1.137,2.6,2.6,0,0,0,3.535.958,2.354,2.354,0,0,0,.218-0.138,2.062,2.062,0,0,0,.67-2.48,3.457,3.457,0,0,0-2.837-1.93,0.323,0.323,0,0,0-.306.123,1.814,1.814,0,0,0-.055-0.22,0.319,0.319,0,0,0,.3.046c1.811-.7,2.51-3.476.73-4.616a2.16,2.16,0,0,0-2.5.093,3.862,3.862,0,0,0-1.023,3.137,0.318,0.318,0,0,0,.166.288,1.956,1.956,0,0,0-.462.253c-1.064-1.8-3.791-2.935-5.042-.6a1.833,1.833,0,0,0,.639,2.519l0.026,0.015a4.052,4.052,0,0,0,2.833.287A2.61,2.61,0,0,0,951,635.7a1.925,1.925,0,0,0,0,1.149c-1.107-.106-2.4,1.521-3.274,2.834,0.28-2.192.547-5.685-1.357-4.962-1.213.468-1.9,2.774-2.32,3.848a17.941,17.941,0,0,0-1.221,6.006,0.185,0.185,0,0,0,.039.131,0.214,0.214,0,0,0-.035.071,183.861,183.861,0,0,1-12.3,32.727,33.7,33.7,0,0,0-1.23-9.124c-0.386-1.376-1.048-4.223-3.121-3.463-1.891.676-1.536,3.645-1.365,5.136a14.425,14.425,0,0,0,2.077,6.024,12.307,12.307,0,0,0-2.841-.947c-1.493-.3-4.516-0.807-5.674.579-2.612,3.151,8.7,4.254,10.139,4.254a0.532,0.532,0,0,0,.424-0.892c0.2-.1.424-0.2,0.62-0.287a0.242,0.242,0,0,0,.088.05c0.056,0.051.119,0.1,0.174,0.144-0.229.461-.458,0.925-0.695,1.386a75.583,75.583,0,0,0-8.863,9.888c-0.216.283,0.25,0.519,0.449,0.253a73.432,73.432,0,0,1,7.608-8.545q-2.641,5.068-5.581,10.036a0.21,0.21,0,0,0,.366.207h0q3.582-5.668,6.691-11.624,0.645-.616,1.332-1.2a6.123,6.123,0,0,1,3.291,3.7c0.665,2.113.279,4.389,0.979,6.5a8.313,8.313,0,0,0,6.119,5.428c0.674,0.148,1.1-.845.373-1.056a7.909,7.909,0,0,1-5-3.966c-1.03-2.074-.687-4.4-1.233-6.585a6.947,6.947,0,0,0-3.817-4.647c0.424-.355.848-0.7,1.273-1.043a14.437,14.437,0,0,1,6.025.211c3.393,0.845,6,3.041,8.481,5.368,4.059,3.8,8.757,8.238,14.842,6.691a0.6,0.6,0,1,0-.233-1.174c-7.85,1.838-12.5-6.391-18.277-9.977a14.941,14.941,0,0,0-9.524-2.146,77.57,77.57,0,0,1,35.684-15.244,0.422,0.422,0,1,0,.082-0.84,0.418,0.418,0,0,0-.238.046,74.678,74.678,0,0,0-36.8,16.224,15.978,15.978,0,0,0-1.7.423A175.2,175.2,0,0,0,943.454,645.7c1.272,3.979,5.936,6.729,9.329,8.6a38.179,38.179,0,0,0,14.842,4.647,0.49,0.49,0,0,0,.076-0.976,44.115,44.115,0,0,1-6.361-1.267,0.259,0.259,0,0,0,.026-0.08,14.433,14.433,0,0,1,2.417-7.126,5.71,5.71,0,0,1,1.017-1.288c1.1-.845,1.214.071,1.273,1.009a21.222,21.222,0,0,1-.636,4.017c-0.068.422,0.619,0.561,0.8,0.211,0.569-1.085,1.552-3.105,2.914-3.138,0.684-.312.854-0.173,0.513,0.422a10.01,10.01,0,0,1-.4,1.267c-0.25.73-.56,1.436-0.873,2.137-0.221.5,0.513,0.647,0.776,0.318q1.115-2.114,3.295.164a3.466,3.466,0,0,1-.539,1.542,5.72,5.72,0,0,1-2.438,2.407,0.423,0.423,0,1,0,.224.815,0.416,0.416,0,0,0,.166-0.088c1.823-1.039,4.329-3.641,3.244-5.981C972.391,651.785,971.124,651.954,970.021,652.629Zm-8.868-5.1a5.079,5.079,0,0,1-5.338,4.844,4.108,4.108,0,0,1-3.74-5.393,0.278,0.278,0,0,0-.115-0.342l0.348-.347a3.446,3.446,0,0,0-.174.714c-0.462,3.135,4.287,5.795,6.165,2.754,0.764-1.237.081-3.126-1.564-2.956a1.459,1.459,0,0,0-.767,2.618,0.5,0.5,0,0,0,.563,0l-0.089.529h-1.306a3.024,3.024,0,0,1-1.76-1.192c-0.89-1.419.077-3.223,1.341-4.013C957.092,643.256,961.128,644.355,961.153,647.527Zm-2.671-12.955a1.6,1.6,0,0,1-.068,2.353,2.042,2.042,0,0,1-3.023-.879,2.5,2.5,0,0,0,.271-1.119,0.333,0.333,0,0,0-.068-0.186,1.686,1.686,0,0,0,.547-0.545,1.462,1.462,0,0,0,.2-0.7,0.354,0.354,0,0,0,.1.047A3.775,3.775,0,0,1,958.482,634.572Zm-3.991-2.987a4.158,4.158,0,0,1,.357-2.191,1.409,1.409,0,0,1,1.92-.526,1.374,1.374,0,0,1,.315.243c1.2,1.166.157,2.632-.848,3.447a0.243,0.243,0,0,0-.09.13,1.652,1.652,0,0,0-1.713-.95A0.338,0.338,0,0,0,954.491,631.585Zm-2.76,4.073a2.331,2.331,0,0,1,1.213-1.4,0.218,0.218,0,0,0,.11-0.156,0.372,0.372,0,0,0-.1-0.726c-0.809,0-1.607.3-2.421,0.257-1.052-.055-2-0.844-1.3-1.951,1.128-1.812,3.045-.177,4,0.845a0.122,0.122,0,0,0,.034.03,0.29,0.29,0,0,0,.4.063l0.021-.017a1.276,1.276,0,0,1,1.582-.11,1.194,1.194,0,0,1,.424,1.356,1.006,1.006,0,0,1-1.854-.777c0.1-.25-0.292-0.329-0.39-0.1a1.49,1.49,0,0,0,.671,1.88,1.389,1.389,0,0,0,.53.139,2.406,2.406,0,0,0,.038.639,2.368,2.368,0,0,1-1.764,1.393A1,1,0,0,1,951.731,635.658Zm-25.57,36.5c-0.357-1.267-1.15-3.958-.471-5.1,1.794-3.041,2.819,1.6,3,2.285s0.369,1.512.517,2.277a37.931,37.931,0,0,1,.645,6.306l-0.068.034a11.877,11.877,0,0,0-1.272-.972A16.062,16.062,0,0,1,926.161,672.156Zm-4.707,5.66a16.426,16.426,0,0,1-1.778-.624c0.174-.955.62-1.407,1.332-1.365,2.3-.57,5.025.57,7.137,1.943l0.081,0.1a0.283,0.283,0,0,0,.228.1c0.178,0.122.357,0.245,0.526,0.371-0.22.114-.424,0.225-0.653,0.351a0.339,0.339,0,0,0-.169.228,31.291,31.291,0,0,1-4.555-.557C922.878,678.213,922.157,678.036,921.454,677.816Zm10.312,0.207-0.559.482-0.3-.106,0.073-.143c0.259-.085.521-0.165,0.784-0.233h0Zm46.177-32.3c-0.455-1.926-2.6-1.955-3.97-1.018,0-1.267-.543-2.926-2-2.606s-1.811,2.361-1.124,3.523c-1.272-.207-2.918.279-2.943,1.74a1.609,1.609,0,0,0,1.434,1.508,2.831,2.831,0,0,0,1.814-.422,2.528,2.528,0,0,0,.3,1.93,2.253,2.253,0,0,0,2.12,1.047,2.114,2.114,0,0,0,1.868-2.337,2.149,2.149,0,0,0-.125-0.51,2.453,2.453,0,0,0,1.65-.422A2.342,2.342,0,0,0,977.943,645.723Zm-4.479,1.267c-0.119.777-1.089,0.613-1.387,0.068a0.381,0.381,0,0,0-.072-0.038,0.339,0.339,0,0,0,.3-0.216,0.63,0.63,0,0,1,.7-0.485,0.641,0.641,0,0,1,.437.7Zm-1.882-1.554c-0.476-.731-0.658-2.162.33-2.627,0.619-.291,1.073.422,1.272,0.908a2.854,2.854,0,0,1,.166,1.516c-0.051.06-.107,0.123-0.153,0.186a0.524,0.524,0,0,0-.081.182h-0.088a1.364,1.364,0,0,0-1.222.616,0.2,0.2,0,0,0-.069-0.272l0,0a1.6,1.6,0,0,0-.208-0.1,0.282,0.282,0,0,0,.063-0.4A0.061,0.061,0,0,1,971.582,645.436Zm-2.927,1.643c0.323-1.128,2.044-1.073,2.88-.752a0.209,0.209,0,0,0,.242-0.084,0.973,0.973,0,0,0-.119.469,0.3,0.3,0,0,0,.1.223,0.317,0.317,0,0,0-.257.368c0,0.01,0,.02.007,0.03a0.347,0.347,0,0,0-.186.051,4.5,4.5,0,0,1-1.273.667c-0.585.139-1.611-.148-1.374-0.972h-0.017Zm4.623,3.409c-1.3-.059-1.642-1.576-1.34-2.594a1.357,1.357,0,0,0,1.127.33,1.4,1.4,0,0,0,.636-0.317,0.48,0.48,0,0,0,.034.089,2.588,2.588,0,0,1,.645,1.512A1.055,1.055,0,0,1,973.278,650.488Zm1.586-2.674a2.2,2.2,0,0,0-.454-0.392,0.371,0.371,0,0,0-.285-0.047,1.354,1.354,0,0,0,.107-0.536,1.266,1.266,0,0,0-.327-0.8,0.489,0.489,0,0,0,.072-0.046,2.945,2.945,0,0,1,1.357-.866,1.305,1.305,0,0,1,1.569.844c0.378,1.339-.942,1.926-2.052,1.846h0.013Zm-16.48-6.471a17.842,17.842,0,0,1,3.325-5.985c0.75-.874,2.087-2.911,3.478-2.395,1.6,0.591.894,2.682-.2,4.6,0.92-.6,1.862-0.9,2.544-0.422,1.328,0.9-.4,2.793-1.76,4.009,1.455-.055,3.134.308,2.969,1.88-0.216,1.981-3.757,2.192-5.182,1.976-0.424-.063-0.331-0.743.06-0.789,0.966-.119,2.251.1,3.1-0.423,1.272-.815.119-1.778-0.967-1.757a5.111,5.111,0,0,0-1.382.244,0.433,0.433,0,1,1-.424-0.755,17.229,17.229,0,0,0,1.594-1.437,11.186,11.186,0,0,0,1.064-1.267q0.555-.481-0.343-0.388c-1.272-.385-2.9,1.635-3.689,2.534-0.335.376-1.027-.122-0.687-0.524,0.038-.038.076-0.084,0.114-0.13a13.881,13.881,0,0,0,2.579-3.933,3.844,3.844,0,0,0,.555-1.572c-0.47-1.655-1.238-.637-1.738-0.168a17.3,17.3,0,0,0-4.423,6.893C958.86,641.867,958.249,641.74,958.384,641.343Z" transform="translate(-918 -627.969)"/>
</svg>
