<svg xmlns="http://www.w3.org/2000/svg" width="78" height="28.031" viewBox="0 0 78 28.031">
  <defs>
    <style>
      .cls-1 {
        fill: #caa354;
        fill-rule: evenodd;
      }
    </style>
  </defs>
  <path id="Forme_22" data-name="Forme 22" class="cls-1" d="M932.771,876.773c-0.945-.319-1.873-0.666-2.787-1.031a16.834,16.834,0,0,0-3.493-9.253,0.443,0.443,0,0,0-.406-0.148,0.316,0.316,0,0,0-.337.106c-2,2.193-.9,5.339.392,7.624a55.084,55.084,0,0,1-8.01-4.77,17.251,17.251,0,0,1-.382-10.89,13.252,13.252,0,0,1,.711,9.132,0.562,0.562,0,0,0,1.085.292,11.718,11.718,0,0,0-1.58-10.6,0.38,0.38,0,0,0-.527-0.083,0.639,0.639,0,0,0-.68.416,15.048,15.048,0,0,0,.036,10.734,59.24,59.24,0,0,1-6.361-5.631,0.367,0.367,0,0,0-.162-0.217,1.36,1.36,0,0,0-.135-0.083c-0.2-.213-0.414-0.421-0.617-0.639a0.342,0.342,0,0,0,.031-0.227,11.077,11.077,0,0,1,1.9-8.725,13.893,13.893,0,0,1-1.756,7.49,0.646,0.646,0,0,0,.188.876,0.608,0.608,0,0,0,.852-0.193,0.645,0.645,0,0,0,.031-0.058,11.876,11.876,0,0,0,1.4-9.147,0.468,0.468,0,0,0-.144-0.416,0.283,0.283,0,0,0-.139-0.107,0.539,0.539,0,0,0-.68.079,11.007,11.007,0,0,0-2.643,9.369,65.9,65.9,0,0,1-5.132-6.477l-0.027-.028a1.529,1.529,0,0,0,.5-0.838,2.009,2.009,0,0,0-1.4-2.28,2.069,2.069,0,0,0-2.449,1.341,0.39,0.39,0,0,0,.16.518,0.373,0.373,0,0,0,.159.042,2.079,2.079,0,0,0,1.283,1.513,1.782,1.782,0,0,0,1.085.055,0.185,0.185,0,0,0,0,.047,49.227,49.227,0,0,0,4.786,6.828,6.1,6.1,0,0,0-5.047,1.629,0.609,0.609,0,0,0-.211.407c-0.266,0-.532.338-0.284,0.56a5.8,5.8,0,0,0,7.712-.157,53.634,53.634,0,0,0,5.258,4.857,7.192,7.192,0,0,0-5.722,2.873,0.579,0.579,0,0,0,.581.889,7.125,7.125,0,0,0,7.5-1.994,54.209,54.209,0,0,0,4.669,3.03,7.678,7.678,0,0,0-5.312,2.087,0.693,0.693,0,0,0-.167.24,0.383,0.383,0,0,0-.135.69,8.518,8.518,0,0,0,9.711-.186,0.753,0.753,0,0,0,.329-0.527,52.394,52.394,0,0,0,5.915,2.313A0.708,0.708,0,0,0,932.771,876.773Zm-31.127-23.239a1.486,1.486,0,0,1-.666-0.9h0a1.017,1.017,0,0,1,1.188-.606,1.077,1.077,0,0,1,.774,1.217A0.84,0.84,0,0,1,901.644,853.534Zm1.7,10.354a5.447,5.447,0,0,1,5.322-1.2l0.207,0.231A5.176,5.176,0,0,1,903.341,863.888Zm24.136,9.929c-1.058-1.994-2.251-3.979-1.491-6.163a20.38,20.38,0,0,1,3.1,7.741c-0.616-.26-1.229-0.528-1.832-0.8a0.574,0.574,0,0,0,.22-0.766l-0.017-.03Zm-16.753-2.073a6.667,6.667,0,0,1,5.538-1.915,6.587,6.587,0,0,1-5.556,1.892Zm7.087,4.483a7.279,7.279,0,0,1,6.69-1.3h0.072c0.229,0.121.45,0.236,0.7,0.347a8.666,8.666,0,0,1-7.478.93Zm60.147-22.387a2.437,2.437,0,0,0-2.661-1.934,1.9,1.9,0,0,0-1.553,2.581,0.424,0.424,0,0,0,.342.273,2.106,2.106,0,0,0,.3.755,48.914,48.914,0,0,1-7.028,8.508A10.179,10.179,0,0,0,965,854.964a0.345,0.345,0,0,0-.55.384,0.39,0.39,0,0,0-.36.282,9.51,9.51,0,0,0,2.049,9.531,46.429,46.429,0,0,1-8.7,6.162,9.279,9.279,0,0,0,0-8.036h0c0.045-.092.09-0.19,0.139-0.282a0.59,0.59,0,0,0-.253-0.782,0.559,0.559,0,0,0-.733.208,10.9,10.9,0,0,0-.684,9.637,0.194,0.194,0,0,0,.041.06,48.854,48.854,0,0,1-7.834,3.118,7.174,7.174,0,0,0,2.386-5.621,0.484,0.484,0,0,0-.487-0.48,0.46,0.46,0,0,0-.116.018,0.447,0.447,0,0,0-.589-0.25,0.4,0.4,0,0,0-.046.023,10.237,10.237,0,0,0-5.065,7.324q-1.584.346-3.214,0.606c-0.518.078-.509,0.957,0.049,0.925a38.359,38.359,0,0,0,9.419-1.781h0a8.47,8.47,0,0,0,10.107,2.16,0.665,0.665,0,1,0-.613-1.179c-0.13.055-.261,0.1-0.4,0.148a0.512,0.512,0,0,0-.2-0.648,10.742,10.742,0,0,0-5.4-1.777,45.051,45.051,0,0,0,7.613-4.1,9.442,9.442,0,0,0,9.216-.027,0.675,0.675,0,0,0,.3-0.889,0.64,0.64,0,0,0-.809-0.337,7.834,7.834,0,0,0-5.119-1.388,44.357,44.357,0,0,0,10.116-11.691,1.76,1.76,0,0,0,.851.124,2.145,2.145,0,0,0,1.869-2.375C977.98,853.967,977.97,853.9,977.958,853.84Zm-13.132,2.128a12.665,12.665,0,0,1,1.512,7.467A9.082,9.082,0,0,1,964.826,855.968Zm-7.987,8.79a10.041,10.041,0,0,1-.189,6.3,11.285,11.285,0,0,1,.189-6.3v0ZM949.46,869.9a7.375,7.375,0,0,1-3.705,5.987l-0.693.171A10.33,10.33,0,0,1,949.46,869.9Zm9.139,7.527a7.985,7.985,0,0,1-7.2-1.739l0.126-.047a13.068,13.068,0,0,1,7.077,1.772v0.014Zm10.355-7.49a8.85,8.85,0,0,1-6.379,0c0.45-.31.878-0.629,1.3-0.953a7.29,7.29,0,0,1,5.065.939Zm7.01-14.569a1.146,1.146,0,0,1-1.189-1.078,0.583,0.583,0,0,0,.027-0.2c-0.1-1.388,1.679-.953,1.941.06a0.984,0.984,0,0,1-.7,1.189,0.935,0.935,0,0,1-.092.018Z" transform="translate(-900 -850.969)"/>
</svg>
